<svg width="81" height="86" viewBox="0 0 81 86" fill="none" xmlns="http://www.w3.org/2000/svg">
<path d="M36.7538 65.5034L38.6775 55.1475C39.0825 53.0334 38.5425 50.8475 37.26 49.1992C35.9775 47.5509 34.0875 46.5834 32.0625 46.5834H13.5V42.7134L22.1738 21.5H49.4775C50.085 21.5 50.625 22.0734 50.625 22.7184V50.8117L36.7538 65.5034ZM33.75 78.8334L55.3838 55.8642C56.6663 54.5025 57.375 52.675 57.375 50.7759V22.7184C57.375 18.0959 53.8313 14.3334 49.4775 14.3334H22.14C19.7438 14.3334 17.55 15.6592 16.335 17.8092L7.32375 39.8467C6.9525 40.7425 6.75 41.71 6.75 42.7134V46.5834C6.75 50.525 9.7875 53.75 13.5 53.75H32.0625L28.9575 70.4125C28.7888 71.2009 28.89 72.0609 29.2275 72.7775C30.0038 74.39 30.9825 75.8592 32.1975 77.1492L33.75 78.8334ZM67.5 53.75H74.25V14.3334H67.5C65.6438 14.3334 64.125 15.9459 64.125 17.9167V50.1667C64.125 52.1375 65.6438 53.75 67.5 53.75Z" fill="#4A4646"/>
</svg>
