<svg width="97" height="90" viewBox="0 0 97 90" fill="none" xmlns="http://www.w3.org/2000/svg">
<path d="M44.0138 68.55L46.3175 57.7125C46.8025 55.5 46.1559 53.2125 44.62 51.4875C43.0842 49.7625 40.8209 48.75 38.3959 48.75H16.1667V44.7L26.5538 22.5H59.2509C59.9784 22.5 60.625 23.1 60.625 23.775V53.175L44.0138 68.55ZM40.4167 82.5L66.3238 58.4625C67.8596 57.0375 68.7084 55.125 68.7084 53.1375V23.775C68.7084 18.9375 64.4646 15 59.2509 15H26.5134C23.6438 15 21.0167 16.3875 19.5617 18.6375L8.77046 41.7C8.32587 42.6375 8.08337 43.65 8.08337 44.7V48.75C8.08337 52.875 11.7209 56.25 16.1667 56.25H38.3959L34.6775 73.6875C34.4755 74.5125 34.5967 75.4125 35.0009 76.1625C35.9305 77.85 37.1025 79.3875 38.5575 80.7375L40.4167 82.5ZM80.8334 56.25H88.9167V15H80.8334C78.6105 15 76.7917 16.6875 76.7917 18.75V52.5C76.7917 54.5625 78.6105 56.25 80.8334 56.25Z" fill="#4A4646"/>
</svg>
