<svg width="82" height="87" viewBox="0 0 82 87" fill="none" xmlns="http://www.w3.org/2000/svg">
<path d="M81.25 0.666622H66.5227V52.2666H81.25V0.666622ZM0.249999 47.9666C0.249999 52.6966 3.56363 56.5666 7.61364 56.5666H30.8459L27.3482 76.2176L27.2377 77.5936C27.2377 79.3566 27.8636 80.9906 28.8577 82.1516L32.7605 86.6666L56.9868 58.3296C58.3491 56.7816 59.1591 54.6316 59.1591 52.2666V9.26662C59.1591 4.53662 55.8455 0.666622 51.7955 0.666622H18.6591C15.6032 0.666622 12.9891 2.81662 11.8845 5.91262L0.765451 36.2276C0.434087 37.2166 0.249999 38.2486 0.249999 39.3666V47.9666Z" fill="black"/>
</svg>
