<svg width="74" height="69" viewBox="0 0 74 69" fill="none" xmlns="http://www.w3.org/2000/svg">
<path d="M41.0699 14.6884L38.9799 25.6463C38.5399 27.8834 39.1266 30.1963 40.5199 31.9405C41.9133 33.6846 43.9666 34.7084 46.1666 34.7084H66.3333V38.8034L56.9099 61.25H27.2466C26.5866 61.25 25.9999 60.6434 25.9999 59.9609V30.2342L41.0699 14.6884V14.6884ZM44.3333 0.583374L20.8299 24.888C19.4366 26.3288 18.6666 28.2625 18.6666 30.2721V59.9609C18.6666 64.8521 22.5166 68.8334 27.2466 68.8334H56.9466C59.5499 68.8334 61.9333 67.4305 63.2533 65.1555L73.0433 41.8367C73.4466 40.8888 73.6666 39.865 73.6666 38.8034V34.7084C73.6666 30.5375 70.3666 27.125 66.3333 27.125H46.1666L49.5399 9.49379C49.7233 8.65962 49.6133 7.74962 49.2466 6.99129C48.4033 5.28504 47.3399 3.73046 46.0199 2.36546L44.3333 0.583374ZM7.66659 27.125H0.333252V68.8334H7.66659C9.68325 68.8334 11.3333 67.1271 11.3333 65.0417V30.9167C11.3333 28.8313 9.68325 27.125 7.66659 27.125Z" fill="#4A4646"/>
</svg>
