<svg width="81" height="86" viewBox="0 0 81 86" fill="none" xmlns="http://www.w3.org/2000/svg">
<path d="M0 79.2271H13.5V36.2271H0V79.2271ZM74.25 39.8104C74.25 35.8688 71.2125 32.6438 67.5 32.6438H46.2037L49.41 16.2679L49.5112 15.1213C49.5112 13.6521 48.9375 12.2904 48.0262 11.3229L44.4487 7.56042L22.2413 31.1746C20.9925 32.4646 20.25 34.2563 20.25 36.2271V72.0604C20.25 76.0021 23.2875 79.2271 27 79.2271H57.375C60.1763 79.2271 62.5725 77.4354 63.585 74.8554L73.7775 49.5929C74.0813 48.7688 74.25 47.9088 74.25 46.9771V39.8104Z" fill="black"/>
</svg>
