<svg width="88" height="91" viewBox="0 0 88 91" fill="none" xmlns="http://www.w3.org/2000/svg">
<path d="M48.07 21.6884L45.98 32.6463C45.54 34.8834 46.1267 37.1963 47.52 38.9405C48.9134 40.6846 50.9667 41.7084 53.1667 41.7084H73.3334V45.8034L63.91 68.25H34.2467C33.5867 68.25 33 67.6434 33 66.9609V37.2342L48.07 21.6884ZM51.3334 7.58337L27.83 31.888C26.4367 33.3288 25.6667 35.2625 25.6667 37.2721V66.9609C25.6667 71.8521 29.5167 75.8334 34.2467 75.8334H63.9467C66.55 75.8334 68.9334 74.4305 70.2534 72.1555L80.0434 48.8367C80.4467 47.8888 80.6667 46.865 80.6667 45.8034V41.7084C80.6667 37.5375 77.3667 34.125 73.3334 34.125H53.1667L56.54 16.4938C56.7234 15.6596 56.6134 14.7496 56.2467 13.9913C55.4034 12.285 54.34 10.7305 53.02 9.36546L51.3334 7.58337ZM14.6667 34.125H7.33337V75.8334H14.6667C16.6834 75.8334 18.3334 74.1271 18.3334 72.0417V37.9167C18.3334 35.8313 16.6834 34.125 14.6667 34.125Z" fill="#4A4646"/>
</svg>
